# xmcd
#
# Track frame offsets:
#	150
#	9155
#	21682
#	36367
#	48732
#	61405
#	73867
#	87127
#	98960
#	109547
#	122832
#	136185
#	146597
#	160692
#	173152
#	184772
#	196210
#	208932
#	220340
#	232235
#
# Disc length: 3283
#
# Revision: 1
# Processed by: cddbd v1.5.1PL0 Copyright (c) Steve Scherf et al.
# Submitted via: CDex 1.40Beta9
# Normalized: r0:TDELIM( - )
#
DISCID=2a0cd114
DTITLE=Various Artist - Country and Western Best 20
DYEAR=1987
DGENRE=Country
TTITLE0=Wanda Jackson - Jambalaya
TTITLE1=Ferlin Husky - I Can't Stop Loving You
TTITLE2=Merle Haggard - Green Green Grass Of Home
TTITLE3=Hank Thompson - The Wild Side Of Life
TTITLE4=Roy Acuff - Wasbash Cannonball
TTITLE5=The Louvin Brothers - The Louvin Brothers
TTITLE6=Ferlin Husky - I Really Don't Want To Know
TTITLE7=Tennessee Earnie Ford - 16 Tons
TTITLE8=Faron Young - Tennessee Waltz
TTITLE9=Merle Haggard - Okie From Muskogee
TTITLE10=Hank Thompson - Wildwood Flower
TTITLE11=Texas Bill Strength - North Wind
TTITLE12=Merle Haggard - Branded Man
TTITLE13=Dean Martin - My Rifle' My Pony And Me
TTITLE14=Faron Young - Don't Let The Stars Get In Your Eyes
TTITLE15=Sonny James - Young Love
TTITLE16=Tex Ritter - High Noon
TTITLE17=Jean Shepard - Dear John Letter
TTITLE18=Texas Bill Strength - The Yellow Rose Of Texas
TTITLE19=Sonny James - You Are My Sunshine
EXTD=YEAR: 1987 ID3G: 2
EXTT0=
EXTT1=
EXTT2=
EXTT3=
EXTT4=
EXTT5=
EXTT6=
EXTT7=
EXTT8=
EXTT9=
EXTT10=
EXTT11=
EXTT12=
EXTT13=
EXTT14=
EXTT15=
EXTT16=
EXTT17=
EXTT18=
EXTT19=
PLAYORDER=
